PathFileType	4	(X/Y/Z)	D:\luciana\Cultery.trc
DataRate	CameraRate	NumFrames	NumMarkers	Units	OrigDataRate	OrigDataStartFrame	OrigNumFrames
250.00	250.00	6	17	mm	250.00	362	2050
Frame#	Time	pelvisR			Trunk1			Trunk2			Trunk3			C7			shoulder			upperArm1			upperArm2			upperArm3			elbow			forearm1			forearm2			forearm3			wrist1			wrist2			wrist3			Hand			
		X1	Y1	Z1	X2	Y2	Z2	X3	Y3	Z3	X4	Y4	Z4	X5	Y5	Z5	X6	Y6	Z6	X7	Y7	Z7	X8	Y8	Z8	X9	Y9	Z9	X10	Y10	Z10	X11	Y11	Z11	X12	Y12	Z12	X13	Y13	Z13	X14	Y14	Z14	X15	Y15	Z15	X16	Y16	Z16	X17	Y17	Z17	

1017	4.068000	1721.049190	650.556147	687.687695	1618.332624	856.405199	936.700046	1649.027824	766.684234	919.478059	1559.742689	799.898148	927.931845	1557.097197	1130.733967	832.988381	1717.893958	1061.157703	746.855021	1808.915854	928.743780	617.313921	1789.160252	880.394459	672.675610	1737.083077	962.467074	598.823965	1764.048100	835.357308	524.533272	1798.058987	814.370036	448.108912	1769.855499	751.859188	491.608530	1738.413215	857.996464	438.681781	1730.162621	809.918880	306.498647	1761.950850	740.742385	326.092601	1661.796331	807.292581	331.774354	1714.675307	751.695395	226.351216	
1018	4.072000	1721.059442	650.557816	687.689662	1618.361473	856.431365	936.716020	1649.038076	766.703248	919.477701	1559.750319	799.914002	927.930057	1557.104230	1130.746841	832.968116	1717.856407	1061.155558	746.805847	1808.749676	928.783715	617.057800	1789.065361	880.465329	672.485828	1736.913323	962.801814	598.570883	1763.779283	835.464656	524.347544	1797.834396	814.472020	447.988033	1769.617200	751.993775	491.492569	1738.164663	858.081222	438.491106	1730.027676	809.873164	306.329221	1761.812687	740.730882	325.999975	1661.025047	807.631969	331.392556	1714.616299	751.627326	226.212129	
1019	4.076000	1721.060872	650.559545	687.685728	1618.367672	856.433570	936.723292	1649.060011	766.709685	919.473410	1559.764147	799.937844	927.929759	1557.112098	1130.745530	832.952976	1717.814922	1061.152697	746.762335	1808.574200	928.898573	616.915703	1788.959503	880.531788	672.302723	1736.545682	963.127077	598.366916	1763.522983	835.581124	524.177611	1797.608733	814.575553	447.877944	1769.380569	752.123237	491.375744	1737.916350	858.167708	438.311070	1729.903221	809.828997	306.171477	1761.647940	740.699172	325.914621	1660.162807	808.274448	331.033170	1714.579701	751.571417	226.078838	
1020	4.080000	1721.047878	650.552690	687.683582	1618.377209	856.447220	936.726451	1649.075985	766.716599	919.467330	1559.772730	799.942672	927.929759	1557.137251	1130.740404	832.930684	1717.773199	1061.141491	746.719480	1808.413386	928.884745	616.610885	1788.857222	880.589843	672.132194	1736.700773	962.906003	598.417699	1763.275862	835.706472	524.019599	1797.379971	814.670503	447.754622	1769.146442	752.242804	491.281360	1737.668037	858.254731	438.134342	1729.778290	809.784651	306.001395	1761.510015	740.675032	325.814605	1661.162615	807.448387	331.136227	1714.527369	751.500487	225.951970	
1021	4.084000	1721.046448	650.546491	687.681854	1618.376493	856.456757	936.716676	1649.084568	766.723633	919.462562	1559.785128	799.956203	927.938461	1557.139277	1130.736351	832.906365	1717.720985	1061.129570	746.670604	1808.249712	928.934455	616.388083	1788.750291	880.632043	671.966136	1736.618042	962.897897	598.376751	1763.020277	835.838735	523.851037	1797.153950	814.771056	447.638243	1768.911600	752.357602	491.189003	1737.422347	858.351767	437.959880	1729.642272	809.714258	305.851161	1761.389017	740.651369	325.730145	1661.533713	807.620227	330.492556	1714.483976	751.427233	225.825995	
1022	4.088000	1721.052051	650.540233	687.691450	1618.393540	856.477976	936.700344	1649.098039	766.746759	919.458508	1559.796572	799.965918	927.939951	1557.138920	1130.737424	832.888305	1717.686176	1061.131835	746.617317	1808.078527	928.995192	616.184592	1788.646340	880.679309	671.801686	1736.466408	962.949872	598.320484	1762.767553	835.960805	523.680925	1796.943903	814.882100	447.532713	1768.671989	752.476335	491.090953	1737.176657	858.442068	437.790602	1729.510069	809.640706	305.692911	1761.233568	740.634203	325.642347	1661.728024	808.036447	329.650760	1714.417815	751.355171	225.703776	
